<svg version="1" xmlns="http://www.w3.org/2000/svg" width="400" height="400" viewBox="0 0 300.000000 300.000000"><path d="M0 150v150h300V0H0v150zM80 22.7L84.3 34h15c17.6 0 17.4-.6 2.4 10.7-5.4 4.1-10 8-10.3 8.6-.2.7 1.4 7 3.6 14 2.2 7.1 4 13.5 4 14.3 0 1-1.2.7-4.2-1.3C78.7 70.1 73.5 67 72.5 67c-.7 0-6.9 3.6-13.9 8.1S45.7 83 45.5 82.8c-.2-.2 1.1-6 3-12.8 1.9-6.8 3.5-13.5 3.5-14.9 0-2.1-2.2-4.4-10.9-11.6l-11-9 15.2-.5 15.2-.5 4-10c2.2-5.5 4.9-12 5.9-14.5l1.8-4.5L74 8c.9 1.9 3.7 8.6 6 14.7zm109 6.7c36.1 15.3 65.8 47.8 78.4 86.1 4.3 13.1 5.7 21.2 6.3 36.5.8 23.4-2.6 38.9-13.3 60.1-3 5.9-5.4 11.2-5.4 11.9 0 1 7.3 9.5 32.4 37.6l4.9 5.5-4.4 4.6c-2.4 2.4-9.2 8.7-15.1 14l-10.8 9.4-8.3-8.8c-4.6-4.8-13-14-18.7-20.3-5.6-6.3-11.2-12.5-12.5-13.8l-2.2-2.3-8.9 3.9c-16.7 7.3-23.6 8.7-43.4 8.7-16 0-18.3-.3-27.4-2.8-16.1-4.5-29.8-11.7-47.3-24.8-3.9-2.9-4.4-3.1-6-1.7-9.3 8-39.4 32.4-45.1 36.7-6.2 4.5-7.5 5.2-8.6 4C23.9 263.3 8 242.8 8 240.8c0-1.1 1.2-2.2 38.6-33.4L78.3 181l2.6 1.7c1.4.9 6.4 4.9 11.1 8.9 11.1 9.4 19.4 14.6 29.1 18.4 22.6 8.7 47.3 10.2 62.9 3.8l3.4-1.4-15.9-17.5c-8.7-9.6-23.3-25.2-32.3-34.6L122.8 143l-3.2 2.2c-1.7 1.3-7.8 6-13.6 10.7-5.8 4.6-11 8.8-11.7 9.3-.8.7-5.1-3.9-14.2-15.4-7.2-9-13-16.8-12.9-17.3.1-.6 15.7-13.8 34.6-29.5 33.4-27.6 34.5-28.5 38.1-28 2 .3 7.2.5 11.6.5 6.6 0 9.2-.5 14.5-2.8 13.5-5.9 11.3-6.2 19.1 2.3 3.7 4.1 6.8 7.9 6.8 8.5 0 .5-6.2 6.1-13.7 12.3-7.5 6.2-15.7 13-18.2 15.1l-4.4 3.9 4.8 5.8c4.6 5.7 38.4 42.6 54 58.9l7.6 8 2.1-2.5c1.2-1.4 3.4-5 4.9-8 11.9-23.6 12.8-48.6 2.8-76.8-8.3-23.5-22.5-44.3-44.6-65.3-11.4-10.7-11.3-11 1.8-5.5z"/></svg>